<svg xmlns="http://www.w3.org/2000/svg" xmlns:xlink="http://www.w3.org/1999/xlink" width="500" zoomAndPan="magnify" viewBox="0 0 375 74.999997" height="100" preserveAspectRatio="xMidYMid meet" version="1.0"><defs><g/></defs><g fill="#3d3b3a" fill-opacity="1"><g transform="translate(165.192011, 41.300839)"><g><path d="M 2.59375 0 L 0.6875 0 L 0.6875 -12.078125 L 2.59375 -12.078125 L 2.59375 -6.90625 L 4.75 -6.90625 L 4.75 -12.078125 L 6.671875 -12.078125 L 6.671875 0 L 4.75 0 L 4.75 -5.171875 L 2.59375 -5.171875 Z M 2.59375 0 "/></g></g></g><g fill="#3d3b3a" fill-opacity="1"><g transform="translate(173.591249, 41.300839)"><g><path d="M 6.828125 0 L 4.921875 0 L 4.59375 -2.1875 L 2.265625 -2.1875 L 1.9375 0 L 0.1875 0 L 2.125 -12.078125 L 4.90625 -12.078125 Z M 2.5 -3.828125 L 4.328125 -3.828125 L 3.421875 -9.9375 Z M 2.5 -3.828125 "/></g></g></g><g fill="#3d3b3a" fill-opacity="1"><g transform="translate(181.645555, 41.300839)"><g><path d="M 0.6875 -12.078125 L 2.59375 -12.078125 L 2.59375 -1.71875 L 5.703125 -1.71875 L 5.703125 0 L 0.6875 0 Z M 0.6875 -12.078125 "/></g></g></g><g fill="#3d3b3a" fill-opacity="1"><g transform="translate(188.527084, 41.300839)"><g><path d="M 0.453125 -9.171875 C 0.453125 -10.148438 0.679688 -10.898438 1.140625 -11.421875 C 1.609375 -11.953125 2.3125 -12.21875 3.25 -12.21875 C 4.175781 -12.21875 4.867188 -11.953125 5.328125 -11.421875 C 5.796875 -10.898438 6.03125 -10.148438 6.03125 -9.171875 L 6.03125 -8.796875 L 4.25 -8.796875 L 4.25 -9.296875 C 4.25 -9.734375 4.164062 -10.039062 4 -10.21875 C 3.832031 -10.394531 3.597656 -10.484375 3.296875 -10.484375 C 2.992188 -10.484375 2.757812 -10.394531 2.59375 -10.21875 C 2.425781 -10.039062 2.34375 -9.734375 2.34375 -9.296875 C 2.34375 -8.878906 2.429688 -8.515625 2.609375 -8.203125 C 2.796875 -7.890625 3.023438 -7.585938 3.296875 -7.296875 C 3.578125 -7.015625 3.875 -6.734375 4.1875 -6.453125 C 4.507812 -6.171875 4.804688 -5.863281 5.078125 -5.53125 C 5.359375 -5.195312 5.59375 -4.816406 5.78125 -4.390625 C 5.96875 -3.972656 6.0625 -3.472656 6.0625 -2.890625 C 6.0625 -1.921875 5.820312 -1.171875 5.34375 -0.640625 C 4.863281 -0.117188 4.15625 0.140625 3.21875 0.140625 C 2.289062 0.140625 1.585938 -0.117188 1.109375 -0.640625 C 0.628906 -1.171875 0.390625 -1.921875 0.390625 -2.890625 L 0.390625 -3.640625 L 2.1875 -3.640625 L 2.1875 -2.78125 C 2.1875 -2.34375 2.273438 -2.035156 2.453125 -1.859375 C 2.628906 -1.691406 2.867188 -1.609375 3.171875 -1.609375 C 3.472656 -1.609375 3.710938 -1.691406 3.890625 -1.859375 C 4.066406 -2.035156 4.15625 -2.34375 4.15625 -2.78125 C 4.15625 -3.1875 4.0625 -3.546875 3.875 -3.859375 C 3.695312 -4.179688 3.46875 -4.484375 3.1875 -4.765625 C 2.914062 -5.046875 2.617188 -5.328125 2.296875 -5.609375 C 1.984375 -5.890625 1.6875 -6.195312 1.40625 -6.53125 C 1.132812 -6.863281 0.90625 -7.242188 0.71875 -7.671875 C 0.539062 -8.097656 0.453125 -8.597656 0.453125 -9.171875 Z M 0.453125 -9.171875 "/></g></g></g><g fill="#3d3b3a" fill-opacity="1"><g transform="translate(196.012248, 41.300839)"><g><path d="M 0.140625 -12.078125 L 6 -12.078125 L 6 -10.34375 L 4.015625 -10.34375 L 4.015625 0 L 2.125 0 L 2.125 -10.34375 L 0.140625 -10.34375 Z M 0.140625 -12.078125 "/></g></g></g><g fill="#3d3b3a" fill-opacity="1"><g transform="translate(203.186974, 41.300839)"><g><path d="M 2.59375 -6.984375 L 5.1875 -6.984375 L 5.1875 -5.265625 L 2.59375 -5.265625 L 2.59375 -1.71875 L 5.859375 -1.71875 L 5.859375 0 L 0.6875 0 L 0.6875 -12.078125 L 5.859375 -12.078125 L 5.859375 -10.34375 L 2.59375 -10.34375 Z M 2.59375 -6.984375 "/></g></g></g><g fill="#3d3b3a" fill-opacity="1"><g transform="translate(210.568661, 41.300839)"><g><path d="M 6.828125 0 L 4.921875 0 L 4.59375 -2.1875 L 2.265625 -2.1875 L 1.9375 0 L 0.1875 0 L 2.125 -12.078125 L 4.90625 -12.078125 Z M 2.5 -3.828125 L 4.328125 -3.828125 L 3.421875 -9.9375 Z M 2.5 -3.828125 "/></g></g></g><g fill="#3d3b3a" fill-opacity="1"><g transform="translate(218.622964, 41.300839)"><g><path d="M 0.6875 -12.078125 L 3.6875 -12.078125 C 4.644531 -12.078125 5.351562 -11.820312 5.8125 -11.3125 C 6.28125 -10.8125 6.515625 -10.070312 6.515625 -9.09375 L 6.515625 -2.984375 C 6.515625 -2.003906 6.28125 -1.257812 5.8125 -0.75 C 5.351562 -0.25 4.644531 0 3.6875 0 L 0.6875 0 Z M 2.59375 -10.34375 L 2.59375 -1.71875 L 3.65625 -1.71875 C 3.957031 -1.71875 4.191406 -1.804688 4.359375 -1.984375 C 4.535156 -2.160156 4.625 -2.460938 4.625 -2.890625 L 4.625 -9.171875 C 4.625 -9.609375 4.535156 -9.910156 4.359375 -10.078125 C 4.191406 -10.253906 3.957031 -10.34375 3.65625 -10.34375 Z M 2.59375 -10.34375 "/></g></g></g><g fill="#3d3b3a" fill-opacity="1"><g transform="translate(226.694519, 41.300839)"><g/></g></g><g fill="#3d3b3a" fill-opacity="1"><g transform="translate(230.40266, 41.300839)"><g><path d="M 4.65625 0 C 4.632812 -0.0820312 4.609375 -0.15625 4.578125 -0.21875 C 4.554688 -0.289062 4.535156 -0.378906 4.515625 -0.484375 C 4.503906 -0.585938 4.492188 -0.71875 4.484375 -0.875 C 4.484375 -1.039062 4.484375 -1.242188 4.484375 -1.484375 L 4.484375 -3.375 C 4.484375 -3.9375 4.382812 -4.332031 4.1875 -4.5625 C 4 -4.800781 3.6875 -4.921875 3.25 -4.921875 L 2.59375 -4.921875 L 2.59375 0 L 0.6875 0 L 0.6875 -12.078125 L 3.546875 -12.078125 C 4.535156 -12.078125 5.25 -11.84375 5.6875 -11.375 C 6.132812 -10.914062 6.359375 -10.222656 6.359375 -9.296875 L 6.359375 -8.34375 C 6.359375 -7.101562 5.945312 -6.289062 5.125 -5.90625 C 5.601562 -5.707031 5.929688 -5.382812 6.109375 -4.9375 C 6.285156 -4.5 6.375 -3.960938 6.375 -3.328125 L 6.375 -1.46875 C 6.375 -1.164062 6.382812 -0.898438 6.40625 -0.671875 C 6.4375 -0.453125 6.5 -0.226562 6.59375 0 Z M 2.59375 -10.34375 L 2.59375 -6.640625 L 3.328125 -6.640625 C 3.679688 -6.640625 3.957031 -6.726562 4.15625 -6.90625 C 4.363281 -7.09375 4.46875 -7.429688 4.46875 -7.921875 L 4.46875 -9.109375 C 4.46875 -9.546875 4.390625 -9.859375 4.234375 -10.046875 C 4.078125 -10.242188 3.832031 -10.34375 3.5 -10.34375 Z M 2.59375 -10.34375 "/></g></g></g><g fill="#3d3b3a" fill-opacity="1"><g transform="translate(238.370732, 41.300839)"><g><path d="M 2.59375 -6.984375 L 5.1875 -6.984375 L 5.1875 -5.265625 L 2.59375 -5.265625 L 2.59375 -1.71875 L 5.859375 -1.71875 L 5.859375 0 L 0.6875 0 L 0.6875 -12.078125 L 5.859375 -12.078125 L 5.859375 -10.34375 L 2.59375 -10.34375 Z M 2.59375 -6.984375 "/></g></g></g><g fill="#3d3b3a" fill-opacity="1"><g transform="translate(245.752422, 41.300839)"><g><path d="M 6.828125 0 L 4.921875 0 L 4.59375 -2.1875 L 2.265625 -2.1875 L 1.9375 0 L 0.1875 0 L 2.125 -12.078125 L 4.90625 -12.078125 Z M 2.5 -3.828125 L 4.328125 -3.828125 L 3.421875 -9.9375 Z M 2.5 -3.828125 "/></g></g></g><g fill="#3d3b3a" fill-opacity="1"><g transform="translate(253.806725, 41.300839)"><g><path d="M 0.6875 -12.078125 L 2.59375 -12.078125 L 2.59375 -1.71875 L 5.703125 -1.71875 L 5.703125 0 L 0.6875 0 Z M 0.6875 -12.078125 "/></g></g></g><g fill="#3d3b3a" fill-opacity="1"><g transform="translate(260.688251, 41.300839)"><g><path d="M 0.140625 -12.078125 L 6 -12.078125 L 6 -10.34375 L 4.015625 -10.34375 L 4.015625 0 L 2.125 0 L 2.125 -10.34375 L 0.140625 -10.34375 Z M 0.140625 -12.078125 "/></g></g></g><g fill="#3d3b3a" fill-opacity="1"><g transform="translate(267.862975, 41.300839)"><g><path d="M 2.46875 -4 L 0.0625 -12.078125 L 2.046875 -12.078125 L 3.5 -6.578125 L 4.953125 -12.078125 L 6.765625 -12.078125 L 4.359375 -4 L 4.359375 0 L 2.46875 0 Z M 2.46875 -4 "/></g></g></g><path stroke-linecap="butt" transform="matrix(-0.00320309, -0.323392, 0.323392, -0.00320309, 107.105696, 53.978433)" fill="none" stroke-linejoin="miter" d="M 0.00518322 2.499703 L 73.590481 2.503802 " stroke="#3d3b3a" stroke-width="5" stroke-opacity="1" stroke-miterlimit="4"/><path stroke-linecap="butt" transform="matrix(-0.323404, -0.00142134, 0.00142134, -0.323404, 135.812824, 54.405683)" fill="none" stroke-linejoin="miter" d="M -0.000097131 2.498505 L 88.632187 2.495485 " stroke="#3d3b3a" stroke-width="5" stroke-opacity="1" stroke-miterlimit="4"/><path stroke-linecap="butt" transform="matrix(0.228684, -0.228684, 0.228684, 0.228684, 106.876052, 30.090572)" fill="none" stroke-linejoin="miter" d="M -0.000709581 2.507083 L 62.252685 2.498542 " stroke="#3d3b3a" stroke-width="5" stroke-opacity="1" stroke-miterlimit="4"/><path stroke-linecap="butt" transform="matrix(0.228684, 0.228684, -0.228684, 0.228684, 121.298011, 15.860255)" fill="none" stroke-linejoin="miter" d="M 0.0041332 2.502995 L 62.231906 2.502995 " stroke="#3d3b3a" stroke-width="5" stroke-opacity="1" stroke-miterlimit="4"/><g fill="#3d3b3a" fill-opacity="1"><g transform="translate(194.761503, 49.92409)"><g><path d="M 1.515625 0.0625 C 1.066406 0.0625 0.71875 -0.0195312 0.46875 -0.1875 C 0.21875 -0.351562 0.09375 -0.585938 0.09375 -0.890625 C 0.09375 -1.109375 0.160156 -1.3125 0.296875 -1.5 C 0.429688 -1.6875 0.628906 -1.851562 0.890625 -2 C 1.148438 -2.144531 1.46875 -2.265625 1.84375 -2.359375 C 2.28125 -2.578125 2.597656 -2.796875 2.796875 -3.015625 C 2.992188 -3.234375 3.09375 -3.460938 3.09375 -3.703125 C 3.09375 -3.828125 3.0625 -3.921875 3 -3.984375 C 2.9375 -4.054688 2.847656 -4.09375 2.734375 -4.09375 C 2.628906 -4.09375 2.53125 -4.054688 2.4375 -3.984375 C 2.351562 -3.921875 2.285156 -3.832031 2.234375 -3.71875 C 2.191406 -3.601562 2.171875 -3.460938 2.171875 -3.296875 C 2.171875 -3.160156 2.1875 -3.015625 2.21875 -2.859375 C 2.257812 -2.703125 2.320312 -2.53125 2.40625 -2.34375 C 2.488281 -2.15625 2.597656 -1.941406 2.734375 -1.703125 C 2.921875 -1.410156 3.085938 -1.175781 3.234375 -1 C 3.378906 -0.820312 3.523438 -0.695312 3.671875 -0.625 C 3.828125 -0.550781 4.003906 -0.515625 4.203125 -0.515625 C 4.328125 -0.515625 4.445312 -0.535156 4.5625 -0.578125 C 4.6875 -0.617188 4.804688 -0.6875 4.921875 -0.78125 L 5.09375 -0.53125 C 4.9375 -0.34375 4.738281 -0.195312 4.5 -0.09375 C 4.269531 0.0078125 4.023438 0.0625 3.765625 0.0625 C 3.484375 0.0625 3.226562 0.015625 3 -0.078125 C 2.78125 -0.179688 2.570312 -0.34375 2.375 -0.5625 C 2.175781 -0.78125 1.984375 -1.0625 1.796875 -1.40625 C 1.679688 -1.625 1.585938 -1.820312 1.515625 -2 C 1.441406 -2.1875 1.382812 -2.351562 1.34375 -2.5 C 1.3125 -2.644531 1.296875 -2.78125 1.296875 -2.90625 C 1.296875 -3.21875 1.363281 -3.488281 1.5 -3.71875 C 1.644531 -3.957031 1.832031 -4.144531 2.0625 -4.28125 C 2.300781 -4.425781 2.566406 -4.5 2.859375 -4.5 C 3.148438 -4.5 3.378906 -4.429688 3.546875 -4.296875 C 3.710938 -4.171875 3.796875 -3.988281 3.796875 -3.75 C 3.796875 -3.53125 3.734375 -3.320312 3.609375 -3.125 C 3.484375 -2.9375 3.296875 -2.757812 3.046875 -2.59375 C 2.796875 -2.425781 2.476562 -2.273438 2.09375 -2.140625 C 1.75 -1.984375 1.488281 -1.820312 1.3125 -1.65625 C 1.144531 -1.488281 1.0625 -1.289062 1.0625 -1.0625 C 1.0625 -0.882812 1.128906 -0.742188 1.265625 -0.640625 C 1.398438 -0.535156 1.59375 -0.484375 1.84375 -0.484375 C 2.257812 -0.484375 2.632812 -0.597656 2.96875 -0.828125 C 3.300781 -1.054688 3.597656 -1.410156 3.859375 -1.890625 L 3.40625 -1.96875 L 3.5 -2.296875 L 5.046875 -2.296875 L 5 -1.96875 L 4.515625 -1.890625 C 4.054688 -1.234375 3.578125 -0.742188 3.078125 -0.421875 C 2.578125 -0.0976562 2.054688 0.0625 1.515625 0.0625 Z M 1.515625 0.0625 "/></g></g></g><g fill="#3d3b3a" fill-opacity="1"><g transform="translate(201.334835, 49.92409)"><g/></g></g><g fill="#3d3b3a" fill-opacity="1"><g transform="translate(204.041698, 49.92409)"><g><path d="M -0.53125 1.484375 L -0.484375 1.171875 L -0.03125 1.0625 C -0.0195312 1 0 0.910156 0.03125 0.796875 C 0.0625 0.691406 0.0976562 0.554688 0.140625 0.390625 L 0.546875 -1.125 C 0.628906 -1.445312 0.691406 -1.71875 0.734375 -1.9375 C 0.785156 -2.15625 0.8125 -2.316406 0.8125 -2.421875 C 0.71875 -2.359375 0.625 -2.285156 0.53125 -2.203125 C 0.445312 -2.117188 0.363281 -2.007812 0.28125 -1.875 L 0.0625 -2.140625 C 0.175781 -2.296875 0.304688 -2.4375 0.453125 -2.5625 C 0.597656 -2.695312 0.742188 -2.804688 0.890625 -2.890625 C 1.035156 -2.972656 1.175781 -3.015625 1.3125 -3.015625 C 1.425781 -3.015625 1.507812 -2.976562 1.5625 -2.90625 C 1.625 -2.84375 1.65625 -2.753906 1.65625 -2.640625 C 1.65625 -2.546875 1.625 -2.359375 1.5625 -2.078125 C 1.5 -1.796875 1.398438 -1.4375 1.265625 -1 L 1.203125 -1 C 1.335938 -1.40625 1.492188 -1.757812 1.671875 -2.0625 C 1.859375 -2.363281 2.050781 -2.597656 2.25 -2.765625 C 2.445312 -2.929688 2.644531 -3.015625 2.84375 -3.015625 C 3.03125 -3.015625 3.179688 -2.941406 3.296875 -2.796875 C 3.421875 -2.648438 3.484375 -2.46875 3.484375 -2.25 C 3.484375 -1.9375 3.421875 -1.640625 3.296875 -1.359375 C 3.179688 -1.078125 3.023438 -0.832031 2.828125 -0.625 C 2.628906 -0.414062 2.414062 -0.25 2.1875 -0.125 C 1.96875 -0.0078125 1.75 0.046875 1.53125 0.046875 C 1.394531 0.046875 1.28125 0.0078125 1.1875 -0.0625 C 1.09375 -0.132812 0.992188 -0.238281 0.890625 -0.375 L 1.09375 -0.578125 C 1.164062 -0.515625 1.242188 -0.46875 1.328125 -0.4375 C 1.421875 -0.40625 1.507812 -0.390625 1.59375 -0.390625 C 1.726562 -0.390625 1.851562 -0.429688 1.96875 -0.515625 C 2.09375 -0.609375 2.195312 -0.726562 2.28125 -0.875 C 2.375 -1.03125 2.441406 -1.207031 2.484375 -1.40625 C 2.535156 -1.601562 2.5625 -1.8125 2.5625 -2.03125 C 2.5625 -2.132812 2.546875 -2.210938 2.515625 -2.265625 C 2.492188 -2.328125 2.460938 -2.359375 2.421875 -2.359375 C 2.367188 -2.359375 2.300781 -2.316406 2.21875 -2.234375 C 2.132812 -2.148438 2.039062 -2.035156 1.9375 -1.890625 C 1.84375 -1.753906 1.742188 -1.597656 1.640625 -1.421875 C 1.535156 -1.242188 1.4375 -1.054688 1.34375 -0.859375 C 1.257812 -0.671875 1.191406 -0.484375 1.140625 -0.296875 L 1.125 -0.234375 L 1.046875 0.125 C 0.984375 0.394531 0.9375 0.609375 0.90625 0.765625 C 0.875 0.921875 0.859375 1.019531 0.859375 1.0625 L 1.375 1.171875 L 1.296875 1.484375 Z M -0.53125 1.484375 "/></g></g></g><g fill="#3d3b3a" fill-opacity="1"><g transform="translate(209.04554, 49.92409)"><g><path d="M 2.328125 -2.265625 C 2.242188 -2.265625 2.160156 -2.226562 2.078125 -2.15625 C 1.992188 -2.082031 1.910156 -1.976562 1.828125 -1.84375 C 1.753906 -1.71875 1.675781 -1.5625 1.59375 -1.375 C 1.488281 -1.132812 1.394531 -0.890625 1.3125 -0.640625 C 1.226562 -0.398438 1.160156 -0.1875 1.109375 0 L 0.21875 0 C 0.28125 -0.1875 0.34375 -0.394531 0.40625 -0.625 C 0.476562 -0.863281 0.546875 -1.097656 0.609375 -1.328125 C 0.671875 -1.566406 0.71875 -1.78125 0.75 -1.96875 C 0.789062 -2.164062 0.8125 -2.316406 0.8125 -2.421875 C 0.71875 -2.359375 0.628906 -2.285156 0.546875 -2.203125 C 0.460938 -2.117188 0.375 -2.007812 0.28125 -1.875 L 0.078125 -2.140625 C 0.191406 -2.296875 0.316406 -2.4375 0.453125 -2.5625 C 0.597656 -2.695312 0.742188 -2.804688 0.890625 -2.890625 C 1.035156 -2.972656 1.175781 -3.015625 1.3125 -3.015625 C 1.40625 -3.015625 1.476562 -2.984375 1.53125 -2.921875 C 1.582031 -2.867188 1.609375 -2.78125 1.609375 -2.65625 C 1.609375 -2.59375 1.59375 -2.472656 1.5625 -2.296875 C 1.53125 -2.128906 1.476562 -1.910156 1.40625 -1.640625 C 1.34375 -1.378906 1.242188 -1.070312 1.109375 -0.71875 L 1.078125 -0.71875 C 1.191406 -1.019531 1.300781 -1.304688 1.40625 -1.578125 C 1.519531 -1.859375 1.632812 -2.101562 1.75 -2.3125 C 1.863281 -2.53125 1.988281 -2.703125 2.125 -2.828125 C 2.257812 -2.953125 2.40625 -3.015625 2.5625 -3.015625 C 2.6875 -3.015625 2.78125 -2.976562 2.84375 -2.90625 C 2.90625 -2.84375 2.9375 -2.753906 2.9375 -2.640625 C 2.9375 -2.546875 2.914062 -2.445312 2.875 -2.34375 C 2.832031 -2.25 2.773438 -2.164062 2.703125 -2.09375 C 2.648438 -2.144531 2.585938 -2.1875 2.515625 -2.21875 C 2.453125 -2.25 2.390625 -2.265625 2.328125 -2.265625 Z M 2.328125 -2.265625 "/></g></g></g><g fill="#3d3b3a" fill-opacity="1"><g transform="translate(213.234325, 49.92409)"><g><path d="M 1.25 0.046875 C 1.03125 0.046875 0.835938 0.00390625 0.671875 -0.078125 C 0.515625 -0.160156 0.390625 -0.28125 0.296875 -0.4375 C 0.210938 -0.601562 0.171875 -0.796875 0.171875 -1.015625 C 0.171875 -1.265625 0.210938 -1.507812 0.296875 -1.75 C 0.390625 -1.988281 0.515625 -2.203125 0.671875 -2.390625 C 0.835938 -2.578125 1.023438 -2.726562 1.234375 -2.84375 C 1.453125 -2.957031 1.679688 -3.015625 1.921875 -3.015625 C 2.140625 -3.015625 2.328125 -2.96875 2.484375 -2.875 C 2.648438 -2.789062 2.773438 -2.671875 2.859375 -2.515625 C 2.953125 -2.359375 3 -2.164062 3 -1.9375 C 3 -1.6875 2.953125 -1.441406 2.859375 -1.203125 C 2.773438 -0.960938 2.648438 -0.75 2.484375 -0.5625 C 2.328125 -0.375 2.140625 -0.222656 1.921875 -0.109375 C 1.710938 -0.00390625 1.488281 0.046875 1.25 0.046875 Z M 1.4375 -0.375 C 1.53125 -0.375 1.617188 -0.414062 1.703125 -0.5 C 1.785156 -0.582031 1.851562 -0.695312 1.90625 -0.84375 C 1.96875 -0.988281 2.015625 -1.148438 2.046875 -1.328125 C 2.078125 -1.515625 2.09375 -1.707031 2.09375 -1.90625 C 2.09375 -2.125 2.0625 -2.296875 2 -2.421875 C 1.945312 -2.546875 1.867188 -2.609375 1.765625 -2.609375 C 1.660156 -2.609375 1.566406 -2.566406 1.484375 -2.484375 C 1.398438 -2.398438 1.328125 -2.285156 1.265625 -2.140625 C 1.210938 -1.992188 1.171875 -1.828125 1.140625 -1.640625 C 1.109375 -1.460938 1.09375 -1.269531 1.09375 -1.0625 C 1.09375 -0.84375 1.125 -0.671875 1.1875 -0.546875 C 1.25 -0.429688 1.332031 -0.375 1.4375 -0.375 Z M 1.4375 -0.375 "/></g></g></g><g fill="#3d3b3a" fill-opacity="1"><g transform="translate(217.793592, 49.92409)"><g><path d="M -0.53125 1.484375 L -0.484375 1.171875 L -0.03125 1.0625 C -0.0195312 1 0 0.910156 0.03125 0.796875 C 0.0625 0.691406 0.0976562 0.554688 0.140625 0.390625 L 0.546875 -1.125 C 0.628906 -1.445312 0.691406 -1.71875 0.734375 -1.9375 C 0.785156 -2.15625 0.8125 -2.316406 0.8125 -2.421875 C 0.71875 -2.359375 0.625 -2.285156 0.53125 -2.203125 C 0.445312 -2.117188 0.363281 -2.007812 0.28125 -1.875 L 0.0625 -2.140625 C 0.175781 -2.296875 0.304688 -2.4375 0.453125 -2.5625 C 0.597656 -2.695312 0.742188 -2.804688 0.890625 -2.890625 C 1.035156 -2.972656 1.175781 -3.015625 1.3125 -3.015625 C 1.425781 -3.015625 1.507812 -2.976562 1.5625 -2.90625 C 1.625 -2.84375 1.65625 -2.753906 1.65625 -2.640625 C 1.65625 -2.546875 1.625 -2.359375 1.5625 -2.078125 C 1.5 -1.796875 1.398438 -1.4375 1.265625 -1 L 1.203125 -1 C 1.335938 -1.40625 1.492188 -1.757812 1.671875 -2.0625 C 1.859375 -2.363281 2.050781 -2.597656 2.25 -2.765625 C 2.445312 -2.929688 2.644531 -3.015625 2.84375 -3.015625 C 3.03125 -3.015625 3.179688 -2.941406 3.296875 -2.796875 C 3.421875 -2.648438 3.484375 -2.46875 3.484375 -2.25 C 3.484375 -1.9375 3.421875 -1.640625 3.296875 -1.359375 C 3.179688 -1.078125 3.023438 -0.832031 2.828125 -0.625 C 2.628906 -0.414062 2.414062 -0.25 2.1875 -0.125 C 1.96875 -0.0078125 1.75 0.046875 1.53125 0.046875 C 1.394531 0.046875 1.28125 0.0078125 1.1875 -0.0625 C 1.09375 -0.132812 0.992188 -0.238281 0.890625 -0.375 L 1.09375 -0.578125 C 1.164062 -0.515625 1.242188 -0.46875 1.328125 -0.4375 C 1.421875 -0.40625 1.507812 -0.390625 1.59375 -0.390625 C 1.726562 -0.390625 1.851562 -0.429688 1.96875 -0.515625 C 2.09375 -0.609375 2.195312 -0.726562 2.28125 -0.875 C 2.375 -1.03125 2.441406 -1.207031 2.484375 -1.40625 C 2.535156 -1.601562 2.5625 -1.8125 2.5625 -2.03125 C 2.5625 -2.132812 2.546875 -2.210938 2.515625 -2.265625 C 2.492188 -2.328125 2.460938 -2.359375 2.421875 -2.359375 C 2.367188 -2.359375 2.300781 -2.316406 2.21875 -2.234375 C 2.132812 -2.148438 2.039062 -2.035156 1.9375 -1.890625 C 1.84375 -1.753906 1.742188 -1.597656 1.640625 -1.421875 C 1.535156 -1.242188 1.4375 -1.054688 1.34375 -0.859375 C 1.257812 -0.671875 1.191406 -0.484375 1.140625 -0.296875 L 1.125 -0.234375 L 1.046875 0.125 C 0.984375 0.394531 0.9375 0.609375 0.90625 0.765625 C 0.875 0.921875 0.859375 1.019531 0.859375 1.0625 L 1.375 1.171875 L 1.296875 1.484375 Z M -0.53125 1.484375 "/></g></g></g><g fill="#3d3b3a" fill-opacity="1"><g transform="translate(222.797435, 49.92409)"><g><path d="M 1.28125 0.046875 C 0.945312 0.046875 0.675781 -0.046875 0.46875 -0.234375 C 0.269531 -0.421875 0.171875 -0.679688 0.171875 -1.015625 C 0.171875 -1.273438 0.21875 -1.523438 0.3125 -1.765625 C 0.414062 -2.015625 0.550781 -2.226562 0.71875 -2.40625 C 0.882812 -2.59375 1.078125 -2.738281 1.296875 -2.84375 C 1.515625 -2.957031 1.742188 -3.015625 1.984375 -3.015625 C 2.242188 -3.015625 2.441406 -2.957031 2.578125 -2.84375 C 2.710938 -2.738281 2.78125 -2.601562 2.78125 -2.4375 C 2.78125 -2.34375 2.753906 -2.242188 2.703125 -2.140625 C 2.648438 -2.035156 2.554688 -1.925781 2.421875 -1.8125 C 2.296875 -1.707031 2.113281 -1.59375 1.875 -1.46875 C 1.644531 -1.351562 1.347656 -1.226562 0.984375 -1.09375 L 0.984375 -1.453125 C 1.234375 -1.546875 1.425781 -1.644531 1.5625 -1.75 C 1.707031 -1.851562 1.804688 -1.957031 1.859375 -2.0625 C 1.921875 -2.175781 1.953125 -2.289062 1.953125 -2.40625 C 1.953125 -2.476562 1.929688 -2.535156 1.890625 -2.578125 C 1.859375 -2.617188 1.8125 -2.640625 1.75 -2.640625 C 1.644531 -2.640625 1.539062 -2.578125 1.4375 -2.453125 C 1.332031 -2.335938 1.242188 -2.171875 1.171875 -1.953125 C 1.109375 -1.734375 1.078125 -1.484375 1.078125 -1.203125 C 1.078125 -0.984375 1.117188 -0.820312 1.203125 -0.71875 C 1.296875 -0.625 1.414062 -0.578125 1.5625 -0.578125 C 1.675781 -0.578125 1.8125 -0.609375 1.96875 -0.671875 C 2.132812 -0.742188 2.289062 -0.867188 2.4375 -1.046875 L 2.640625 -0.734375 C 2.441406 -0.460938 2.21875 -0.265625 1.96875 -0.140625 C 1.71875 -0.015625 1.488281 0.046875 1.28125 0.046875 Z M 1.28125 0.046875 "/></g></g></g><g fill="#3d3b3a" fill-opacity="1"><g transform="translate(227.019901, 49.92409)"><g><path d="M 2.328125 -2.265625 C 2.242188 -2.265625 2.160156 -2.226562 2.078125 -2.15625 C 1.992188 -2.082031 1.910156 -1.976562 1.828125 -1.84375 C 1.753906 -1.71875 1.675781 -1.5625 1.59375 -1.375 C 1.488281 -1.132812 1.394531 -0.890625 1.3125 -0.640625 C 1.226562 -0.398438 1.160156 -0.1875 1.109375 0 L 0.21875 0 C 0.28125 -0.1875 0.34375 -0.394531 0.40625 -0.625 C 0.476562 -0.863281 0.546875 -1.097656 0.609375 -1.328125 C 0.671875 -1.566406 0.71875 -1.78125 0.75 -1.96875 C 0.789062 -2.164062 0.8125 -2.316406 0.8125 -2.421875 C 0.71875 -2.359375 0.628906 -2.285156 0.546875 -2.203125 C 0.460938 -2.117188 0.375 -2.007812 0.28125 -1.875 L 0.078125 -2.140625 C 0.191406 -2.296875 0.316406 -2.4375 0.453125 -2.5625 C 0.597656 -2.695312 0.742188 -2.804688 0.890625 -2.890625 C 1.035156 -2.972656 1.175781 -3.015625 1.3125 -3.015625 C 1.40625 -3.015625 1.476562 -2.984375 1.53125 -2.921875 C 1.582031 -2.867188 1.609375 -2.78125 1.609375 -2.65625 C 1.609375 -2.59375 1.59375 -2.472656 1.5625 -2.296875 C 1.53125 -2.128906 1.476562 -1.910156 1.40625 -1.640625 C 1.34375 -1.378906 1.242188 -1.070312 1.109375 -0.71875 L 1.078125 -0.71875 C 1.191406 -1.019531 1.300781 -1.304688 1.40625 -1.578125 C 1.519531 -1.859375 1.632812 -2.101562 1.75 -2.3125 C 1.863281 -2.53125 1.988281 -2.703125 2.125 -2.828125 C 2.257812 -2.953125 2.40625 -3.015625 2.5625 -3.015625 C 2.6875 -3.015625 2.78125 -2.976562 2.84375 -2.90625 C 2.90625 -2.84375 2.9375 -2.753906 2.9375 -2.640625 C 2.9375 -2.546875 2.914062 -2.445312 2.875 -2.34375 C 2.832031 -2.25 2.773438 -2.164062 2.703125 -2.09375 C 2.648438 -2.144531 2.585938 -2.1875 2.515625 -2.21875 C 2.453125 -2.25 2.390625 -2.265625 2.328125 -2.265625 Z M 2.328125 -2.265625 "/></g></g></g><g fill="#3d3b3a" fill-opacity="1"><g transform="translate(231.208688, 49.92409)"><g><path d="M 2.234375 -0.859375 C 2.015625 -0.546875 1.785156 -0.316406 1.546875 -0.171875 C 1.304688 -0.0234375 1.066406 0.046875 0.828125 0.046875 C 0.648438 0.046875 0.515625 0.00390625 0.421875 -0.078125 C 0.328125 -0.160156 0.28125 -0.285156 0.28125 -0.453125 C 0.28125 -0.503906 0.285156 -0.5625 0.296875 -0.625 C 0.304688 -0.695312 0.320312 -0.769531 0.34375 -0.84375 L 0.75 -2.515625 L 0.28125 -2.515625 L 0.328125 -2.734375 L 1.671875 -3.640625 L 1.875 -3.640625 L 1.625 -2.703125 L 1.234375 -1.015625 C 1.210938 -0.929688 1.195312 -0.867188 1.1875 -0.828125 C 1.175781 -0.796875 1.171875 -0.765625 1.171875 -0.734375 C 1.171875 -0.628906 1.21875 -0.578125 1.3125 -0.578125 C 1.40625 -0.578125 1.503906 -0.617188 1.609375 -0.703125 C 1.722656 -0.785156 1.863281 -0.9375 2.03125 -1.15625 Z M 1.265625 -2.515625 L 1.359375 -2.9375 L 2.4375 -2.9375 L 2.359375 -2.515625 Z M 1.265625 -2.515625 "/></g></g></g><g fill="#3d3b3a" fill-opacity="1"><g transform="translate(234.919217, 49.92409)"><g><path d="M 0.71875 0.046875 C 0.59375 0.046875 0.492188 0.0195312 0.421875 -0.03125 C 0.359375 -0.09375 0.328125 -0.195312 0.328125 -0.34375 C 0.328125 -0.40625 0.34375 -0.503906 0.375 -0.640625 C 0.414062 -0.773438 0.460938 -0.925781 0.515625 -1.09375 C 0.578125 -1.269531 0.632812 -1.441406 0.6875 -1.609375 C 0.738281 -1.773438 0.78125 -1.929688 0.8125 -2.078125 C 0.851562 -2.222656 0.875 -2.335938 0.875 -2.421875 C 0.78125 -2.359375 0.691406 -2.285156 0.609375 -2.203125 C 0.523438 -2.117188 0.4375 -2.007812 0.34375 -1.875 L 0.125 -2.140625 C 0.238281 -2.296875 0.367188 -2.4375 0.515625 -2.5625 C 0.660156 -2.695312 0.804688 -2.804688 0.953125 -2.890625 C 1.109375 -2.972656 1.253906 -3.015625 1.390625 -3.015625 C 1.515625 -3.015625 1.609375 -2.976562 1.671875 -2.90625 C 1.742188 -2.84375 1.78125 -2.75 1.78125 -2.625 C 1.78125 -2.550781 1.757812 -2.445312 1.71875 -2.3125 C 1.675781 -2.175781 1.628906 -2.019531 1.578125 -1.84375 C 1.523438 -1.664062 1.472656 -1.488281 1.421875 -1.3125 C 1.367188 -1.144531 1.320312 -0.988281 1.28125 -0.84375 C 1.25 -0.707031 1.234375 -0.601562 1.234375 -0.53125 C 1.328125 -0.59375 1.414062 -0.664062 1.5 -0.75 C 1.59375 -0.832031 1.679688 -0.929688 1.765625 -1.046875 L 1.984375 -0.8125 C 1.867188 -0.65625 1.738281 -0.507812 1.59375 -0.375 C 1.445312 -0.25 1.296875 -0.144531 1.140625 -0.0625 C 0.992188 0.0078125 0.851562 0.046875 0.71875 0.046875 Z M 1.5625 -3.546875 C 1.394531 -3.546875 1.265625 -3.59375 1.171875 -3.6875 C 1.085938 -3.78125 1.046875 -3.898438 1.046875 -4.046875 C 1.046875 -4.140625 1.070312 -4.234375 1.125 -4.328125 C 1.175781 -4.421875 1.25 -4.492188 1.34375 -4.546875 C 1.4375 -4.597656 1.539062 -4.625 1.65625 -4.625 C 1.8125 -4.625 1.929688 -4.578125 2.015625 -4.484375 C 2.097656 -4.398438 2.140625 -4.289062 2.140625 -4.15625 C 2.140625 -4.050781 2.113281 -3.953125 2.0625 -3.859375 C 2.019531 -3.765625 1.953125 -3.6875 1.859375 -3.625 C 1.773438 -3.570312 1.675781 -3.546875 1.5625 -3.546875 Z M 1.5625 -3.546875 "/></g></g></g><g fill="#3d3b3a" fill-opacity="1"><g transform="translate(238.407458, 49.92409)"><g><path d="M 1.28125 0.046875 C 0.945312 0.046875 0.675781 -0.046875 0.46875 -0.234375 C 0.269531 -0.421875 0.171875 -0.679688 0.171875 -1.015625 C 0.171875 -1.273438 0.21875 -1.523438 0.3125 -1.765625 C 0.414062 -2.015625 0.550781 -2.226562 0.71875 -2.40625 C 0.882812 -2.59375 1.078125 -2.738281 1.296875 -2.84375 C 1.515625 -2.957031 1.742188 -3.015625 1.984375 -3.015625 C 2.242188 -3.015625 2.441406 -2.957031 2.578125 -2.84375 C 2.710938 -2.738281 2.78125 -2.601562 2.78125 -2.4375 C 2.78125 -2.34375 2.753906 -2.242188 2.703125 -2.140625 C 2.648438 -2.035156 2.554688 -1.925781 2.421875 -1.8125 C 2.296875 -1.707031 2.113281 -1.59375 1.875 -1.46875 C 1.644531 -1.351562 1.347656 -1.226562 0.984375 -1.09375 L 0.984375 -1.453125 C 1.234375 -1.546875 1.425781 -1.644531 1.5625 -1.75 C 1.707031 -1.851562 1.804688 -1.957031 1.859375 -2.0625 C 1.921875 -2.175781 1.953125 -2.289062 1.953125 -2.40625 C 1.953125 -2.476562 1.929688 -2.535156 1.890625 -2.578125 C 1.859375 -2.617188 1.8125 -2.640625 1.75 -2.640625 C 1.644531 -2.640625 1.539062 -2.578125 1.4375 -2.453125 C 1.332031 -2.335938 1.242188 -2.171875 1.171875 -1.953125 C 1.109375 -1.734375 1.078125 -1.484375 1.078125 -1.203125 C 1.078125 -0.984375 1.117188 -0.820312 1.203125 -0.71875 C 1.296875 -0.625 1.414062 -0.578125 1.5625 -0.578125 C 1.675781 -0.578125 1.8125 -0.609375 1.96875 -0.671875 C 2.132812 -0.742188 2.289062 -0.867188 2.4375 -1.046875 L 2.640625 -0.734375 C 2.441406 -0.460938 2.21875 -0.265625 1.96875 -0.140625 C 1.71875 -0.015625 1.488281 0.046875 1.28125 0.046875 Z M 1.28125 0.046875 "/></g></g></g><g fill="#3d3b3a" fill-opacity="1"><g transform="translate(242.629925, 49.92409)"><g><path d="M 0.921875 0.046875 C 0.722656 0.046875 0.550781 0.0195312 0.40625 -0.03125 C 0.269531 -0.0820312 0.164062 -0.148438 0.09375 -0.234375 C 0.0195312 -0.328125 -0.015625 -0.421875 -0.015625 -0.515625 C -0.015625 -0.597656 0 -0.675781 0.03125 -0.75 C 0.0703125 -0.832031 0.125 -0.90625 0.1875 -0.96875 C 0.320312 -0.789062 0.472656 -0.644531 0.640625 -0.53125 C 0.816406 -0.425781 0.960938 -0.375 1.078125 -0.375 C 1.171875 -0.375 1.242188 -0.394531 1.296875 -0.4375 C 1.359375 -0.488281 1.390625 -0.5625 1.390625 -0.65625 C 1.390625 -0.738281 1.359375 -0.8125 1.296875 -0.875 C 1.242188 -0.945312 1.117188 -1.046875 0.921875 -1.171875 C 0.773438 -1.265625 0.65625 -1.351562 0.5625 -1.4375 C 0.476562 -1.519531 0.414062 -1.601562 0.375 -1.6875 C 0.34375 -1.769531 0.328125 -1.859375 0.328125 -1.953125 C 0.328125 -2.160156 0.382812 -2.34375 0.5 -2.5 C 0.613281 -2.65625 0.765625 -2.78125 0.953125 -2.875 C 1.148438 -2.96875 1.363281 -3.015625 1.59375 -3.015625 C 1.75 -3.015625 1.890625 -2.992188 2.015625 -2.953125 C 2.140625 -2.910156 2.238281 -2.851562 2.3125 -2.78125 C 2.394531 -2.707031 2.4375 -2.609375 2.4375 -2.484375 C 2.4375 -2.398438 2.421875 -2.320312 2.390625 -2.25 C 2.359375 -2.1875 2.316406 -2.128906 2.265625 -2.078125 C 2.109375 -2.265625 1.960938 -2.398438 1.828125 -2.484375 C 1.703125 -2.566406 1.582031 -2.609375 1.46875 -2.609375 C 1.363281 -2.609375 1.28125 -2.578125 1.21875 -2.515625 C 1.15625 -2.453125 1.125 -2.378906 1.125 -2.296875 C 1.125 -2.242188 1.132812 -2.195312 1.15625 -2.15625 C 1.1875 -2.113281 1.238281 -2.0625 1.3125 -2 C 1.382812 -1.9375 1.492188 -1.851562 1.640625 -1.75 C 1.773438 -1.65625 1.882812 -1.566406 1.96875 -1.484375 C 2.050781 -1.410156 2.109375 -1.335938 2.140625 -1.265625 C 2.179688 -1.191406 2.203125 -1.109375 2.203125 -1.015625 C 2.203125 -0.816406 2.144531 -0.632812 2.03125 -0.46875 C 1.914062 -0.3125 1.757812 -0.1875 1.5625 -0.09375 C 1.363281 0 1.148438 0.046875 0.921875 0.046875 Z M 0.921875 0.046875 "/></g></g></g></svg>