<svg xmlns="http://www.w3.org/2000/svg" xmlns:xlink="http://www.w3.org/1999/xlink" width="500" zoomAndPan="magnify" viewBox="0 0 375 74.999997" height="100" preserveAspectRatio="xMidYMid meet" version="1.0"><defs><g/></defs><rect x="-37.5" width="450" fill="#ffffff" y="-7.5" height="89.999996" fill-opacity="1"/><rect x="-37.5" width="450" fill="#ffffff" y="-7.5" height="89.999996" fill-opacity="1"/><g fill="#3d3b3a" fill-opacity="1"><g transform="translate(152.947434, 37.578628)"><g><path d="M 2.484375 0 L 0.65625 0 L 0.65625 -11.5625 L 2.484375 -11.5625 L 2.484375 -6.609375 L 4.546875 -6.609375 L 4.546875 -11.5625 L 6.390625 -11.5625 L 6.390625 0 L 4.546875 0 L 4.546875 -4.953125 L 2.484375 -4.953125 Z M 2.484375 0 "/></g></g></g><g fill="#3d3b3a" fill-opacity="1"><g transform="translate(160.988025, 37.578628)"><g><path d="M 6.546875 0 L 4.703125 0 L 4.390625 -2.09375 L 2.15625 -2.09375 L 1.84375 0 L 0.1875 0 L 2.03125 -11.5625 L 4.6875 -11.5625 Z M 2.390625 -3.671875 L 4.140625 -3.671875 L 3.265625 -9.515625 Z M 2.390625 -3.671875 "/></g></g></g><g fill="#3d3b3a" fill-opacity="1"><g transform="translate(168.698412, 37.578628)"><g><path d="M 0.65625 -11.5625 L 2.484375 -11.5625 L 2.484375 -1.65625 L 5.46875 -1.65625 L 5.46875 0 L 0.65625 0 Z M 0.65625 -11.5625 "/></g></g></g><g fill="#3d3b3a" fill-opacity="1"><g transform="translate(175.2861, 37.578628)"><g><path d="M 0.421875 -8.78125 C 0.421875 -9.71875 0.644531 -10.4375 1.09375 -10.9375 C 1.539062 -11.4375 2.210938 -11.6875 3.109375 -11.6875 C 3.992188 -11.6875 4.660156 -11.4375 5.109375 -10.9375 C 5.554688 -10.4375 5.78125 -9.71875 5.78125 -8.78125 L 5.78125 -8.421875 L 4.0625 -8.421875 L 4.0625 -8.90625 C 4.0625 -9.320312 3.976562 -9.613281 3.8125 -9.78125 C 3.65625 -9.957031 3.4375 -10.046875 3.15625 -10.046875 C 2.863281 -10.046875 2.640625 -9.957031 2.484375 -9.78125 C 2.328125 -9.613281 2.25 -9.320312 2.25 -8.90625 C 2.25 -8.507812 2.335938 -8.160156 2.515625 -7.859375 C 2.691406 -7.554688 2.910156 -7.269531 3.171875 -7 C 3.429688 -6.726562 3.710938 -6.457031 4.015625 -6.1875 C 4.316406 -5.914062 4.597656 -5.617188 4.859375 -5.296875 C 5.128906 -4.984375 5.351562 -4.617188 5.53125 -4.203125 C 5.707031 -3.796875 5.796875 -3.320312 5.796875 -2.78125 C 5.796875 -1.84375 5.566406 -1.125 5.109375 -0.625 C 4.648438 -0.125 3.976562 0.125 3.09375 0.125 C 2.195312 0.125 1.519531 -0.125 1.0625 -0.625 C 0.601562 -1.125 0.375 -1.84375 0.375 -2.78125 L 0.375 -3.484375 L 2.09375 -3.484375 L 2.09375 -2.65625 C 2.09375 -2.238281 2.175781 -1.945312 2.34375 -1.78125 C 2.519531 -1.613281 2.75 -1.53125 3.03125 -1.53125 C 3.320312 -1.53125 3.550781 -1.613281 3.71875 -1.78125 C 3.894531 -1.945312 3.984375 -2.238281 3.984375 -2.65625 C 3.984375 -3.050781 3.894531 -3.398438 3.71875 -3.703125 C 3.539062 -4.003906 3.316406 -4.289062 3.046875 -4.5625 C 2.785156 -4.832031 2.503906 -5.101562 2.203125 -5.375 C 1.898438 -5.644531 1.613281 -5.9375 1.34375 -6.25 C 1.082031 -6.570312 0.863281 -6.9375 0.6875 -7.34375 C 0.507812 -7.75 0.421875 -8.226562 0.421875 -8.78125 Z M 0.421875 -8.78125 "/></g></g></g><g fill="#3d3b3a" fill-opacity="1"><g transform="translate(182.451648, 37.578628)"><g><path d="M 0.125 -11.5625 L 5.75 -11.5625 L 5.75 -9.90625 L 3.84375 -9.90625 L 3.84375 0 L 2.03125 0 L 2.03125 -9.90625 L 0.125 -9.90625 Z M 0.125 -11.5625 "/></g></g></g><g fill="#3d3b3a" fill-opacity="1"><g transform="translate(189.320013, 37.578628)"><g><path d="M 2.484375 -6.6875 L 4.96875 -6.6875 L 4.96875 -5.03125 L 2.484375 -5.03125 L 2.484375 -1.65625 L 5.609375 -1.65625 L 5.609375 0 L 0.65625 0 L 0.65625 -11.5625 L 5.609375 -11.5625 L 5.609375 -9.90625 L 2.484375 -9.90625 Z M 2.484375 -6.6875 "/></g></g></g><g fill="#3d3b3a" fill-opacity="1"><g transform="translate(196.386502, 37.578628)"><g><path d="M 6.546875 0 L 4.703125 0 L 4.390625 -2.09375 L 2.15625 -2.09375 L 1.84375 0 L 0.1875 0 L 2.03125 -11.5625 L 4.6875 -11.5625 Z M 2.390625 -3.671875 L 4.140625 -3.671875 L 3.265625 -9.515625 Z M 2.390625 -3.671875 "/></g></g></g><g fill="#3d3b3a" fill-opacity="1"><g transform="translate(204.096886, 37.578628)"><g><path d="M 0.65625 -11.5625 L 3.53125 -11.5625 C 4.445312 -11.5625 5.128906 -11.316406 5.578125 -10.828125 C 6.023438 -10.347656 6.25 -9.640625 6.25 -8.703125 L 6.25 -2.859375 C 6.25 -1.921875 6.023438 -1.207031 5.578125 -0.71875 C 5.128906 -0.238281 4.445312 0 3.53125 0 L 0.65625 0 Z M 2.484375 -9.90625 L 2.484375 -1.65625 L 3.5 -1.65625 C 3.789062 -1.65625 4.015625 -1.734375 4.171875 -1.890625 C 4.335938 -2.054688 4.421875 -2.351562 4.421875 -2.78125 L 4.421875 -8.78125 C 4.421875 -9.195312 4.335938 -9.488281 4.171875 -9.65625 C 4.015625 -9.820312 3.789062 -9.90625 3.5 -9.90625 Z M 2.484375 -9.90625 "/></g></g></g><g fill="#3d3b3a" fill-opacity="1"><g transform="translate(211.823785, 37.578628)"><g/></g></g><g fill="#3d3b3a" fill-opacity="1"><g transform="translate(215.373589, 37.578628)"><g><path d="M 4.453125 0 C 4.429688 -0.0703125 4.410156 -0.140625 4.390625 -0.203125 C 4.367188 -0.273438 4.347656 -0.359375 4.328125 -0.453125 C 4.316406 -0.554688 4.304688 -0.6875 4.296875 -0.84375 C 4.296875 -1 4.296875 -1.191406 4.296875 -1.421875 L 4.296875 -3.234375 C 4.296875 -3.773438 4.203125 -4.15625 4.015625 -4.375 C 3.828125 -4.59375 3.523438 -4.703125 3.109375 -4.703125 L 2.484375 -4.703125 L 2.484375 0 L 0.65625 0 L 0.65625 -11.5625 L 3.40625 -11.5625 C 4.351562 -11.5625 5.035156 -11.335938 5.453125 -10.890625 C 5.878906 -10.453125 6.09375 -9.789062 6.09375 -8.90625 L 6.09375 -8 C 6.09375 -6.800781 5.695312 -6.015625 4.90625 -5.640625 C 5.363281 -5.460938 5.675781 -5.160156 5.84375 -4.734375 C 6.019531 -4.304688 6.109375 -3.789062 6.109375 -3.1875 L 6.109375 -1.40625 C 6.109375 -1.113281 6.117188 -0.859375 6.140625 -0.640625 C 6.160156 -0.429688 6.21875 -0.21875 6.3125 0 Z M 2.484375 -9.90625 L 2.484375 -6.359375 L 3.1875 -6.359375 C 3.53125 -6.359375 3.796875 -6.445312 3.984375 -6.625 C 4.179688 -6.800781 4.28125 -7.117188 4.28125 -7.578125 L 4.28125 -8.71875 C 4.28125 -9.132812 4.203125 -9.4375 4.046875 -9.625 C 3.898438 -9.8125 3.671875 -9.90625 3.359375 -9.90625 Z M 2.484375 -9.90625 "/></g></g></g><g fill="#3d3b3a" fill-opacity="1"><g transform="translate(223.001424, 37.578628)"><g><path d="M 2.484375 -6.6875 L 4.96875 -6.6875 L 4.96875 -5.03125 L 2.484375 -5.03125 L 2.484375 -1.65625 L 5.609375 -1.65625 L 5.609375 0 L 0.65625 0 L 0.65625 -11.5625 L 5.609375 -11.5625 L 5.609375 -9.90625 L 2.484375 -9.90625 Z M 2.484375 -6.6875 "/></g></g></g><g fill="#3d3b3a" fill-opacity="1"><g transform="translate(230.067915, 37.578628)"><g><path d="M 6.546875 0 L 4.703125 0 L 4.390625 -2.09375 L 2.15625 -2.09375 L 1.84375 0 L 0.1875 0 L 2.03125 -11.5625 L 4.6875 -11.5625 Z M 2.390625 -3.671875 L 4.140625 -3.671875 L 3.265625 -9.515625 Z M 2.390625 -3.671875 "/></g></g></g><g fill="#3d3b3a" fill-opacity="1"><g transform="translate(237.778299, 37.578628)"><g><path d="M 0.65625 -11.5625 L 2.484375 -11.5625 L 2.484375 -1.65625 L 5.46875 -1.65625 L 5.46875 0 L 0.65625 0 Z M 0.65625 -11.5625 "/></g></g></g><g fill="#3d3b3a" fill-opacity="1"><g transform="translate(244.365985, 37.578628)"><g><path d="M 0.125 -11.5625 L 5.75 -11.5625 L 5.75 -9.90625 L 3.84375 -9.90625 L 3.84375 0 L 2.03125 0 L 2.03125 -9.90625 L 0.125 -9.90625 Z M 0.125 -11.5625 "/></g></g></g><g fill="#3d3b3a" fill-opacity="1"><g transform="translate(251.234348, 37.578628)"><g><path d="M 2.359375 -3.828125 L 0.0625 -11.5625 L 1.96875 -11.5625 L 3.359375 -6.296875 L 4.734375 -11.5625 L 6.46875 -11.5625 L 4.171875 -3.828125 L 4.171875 0 L 2.359375 0 Z M 2.359375 -3.828125 "/></g></g></g><path stroke-linecap="butt" transform="matrix(-0.00306632, -0.309583, 0.309583, -0.00306632, 150.190558, 47.200589)" fill="none" stroke-linejoin="miter" d="M 0.00488813 2.501112 L 73.591868 2.498137 " stroke="#3d3b3a" stroke-width="5" stroke-opacity="1" stroke-miterlimit="4"/><path stroke-linecap="butt" transform="matrix(-0.309595, -0.00136065, 0.00136065, -0.309595, 177.671873, 47.609597)" fill="none" stroke-linejoin="miter" d="M -0.00164107 2.498948 L 88.622242 2.500587 " stroke="#3d3b3a" stroke-width="5" stroke-opacity="1" stroke-miterlimit="4"/><path stroke-linecap="butt" transform="matrix(0.218919, -0.218919, 0.218919, 0.218919, 149.970698, 24.332736)" fill="none" stroke-linejoin="miter" d="M 0.00608198 2.500934 L 62.243776 2.500934 " stroke="#3d3b3a" stroke-width="5" stroke-opacity="1" stroke-miterlimit="4"/><path stroke-linecap="butt" transform="matrix(0.218919, 0.218919, -0.218919, 0.218919, 163.776849, 10.710055)" fill="none" stroke-linejoin="miter" d="M 0.00314665 2.498957 L 62.240841 2.498957 " stroke="#3d3b3a" stroke-width="5" stroke-opacity="1" stroke-miterlimit="4"/><g fill="#3d3b3a" fill-opacity="1"><g transform="translate(181.254287, 45.834568)"><g><path d="M 1.453125 0.0625 C 1.023438 0.0625 0.691406 -0.015625 0.453125 -0.171875 C 0.210938 -0.335938 0.09375 -0.566406 0.09375 -0.859375 C 0.09375 -1.066406 0.15625 -1.257812 0.28125 -1.4375 C 0.414062 -1.613281 0.609375 -1.769531 0.859375 -1.90625 C 1.109375 -2.050781 1.410156 -2.171875 1.765625 -2.265625 C 2.191406 -2.472656 2.5 -2.679688 2.6875 -2.890625 C 2.875 -3.097656 2.96875 -3.320312 2.96875 -3.5625 C 2.96875 -3.675781 2.9375 -3.765625 2.875 -3.828125 C 2.8125 -3.898438 2.726562 -3.9375 2.625 -3.9375 C 2.519531 -3.9375 2.425781 -3.898438 2.34375 -3.828125 C 2.257812 -3.765625 2.191406 -3.675781 2.140625 -3.5625 C 2.097656 -3.457031 2.078125 -3.328125 2.078125 -3.171875 C 2.078125 -3.035156 2.09375 -2.894531 2.125 -2.75 C 2.164062 -2.601562 2.222656 -2.4375 2.296875 -2.25 C 2.378906 -2.070312 2.488281 -1.867188 2.625 -1.640625 C 2.800781 -1.347656 2.957031 -1.117188 3.09375 -0.953125 C 3.238281 -0.785156 3.382812 -0.664062 3.53125 -0.59375 C 3.675781 -0.53125 3.84375 -0.5 4.03125 -0.5 C 4.144531 -0.5 4.257812 -0.519531 4.375 -0.5625 C 4.5 -0.601562 4.613281 -0.664062 4.71875 -0.75 L 4.875 -0.515625 C 4.726562 -0.335938 4.539062 -0.195312 4.3125 -0.09375 C 4.09375 0.0078125 3.859375 0.0625 3.609375 0.0625 C 3.335938 0.0625 3.09375 0.015625 2.875 -0.078125 C 2.664062 -0.171875 2.46875 -0.320312 2.28125 -0.53125 C 2.09375 -0.75 1.90625 -1.019531 1.71875 -1.34375 C 1.613281 -1.5625 1.523438 -1.753906 1.453125 -1.921875 C 1.378906 -2.097656 1.320312 -2.253906 1.28125 -2.390625 C 1.25 -2.535156 1.234375 -2.664062 1.234375 -2.78125 C 1.234375 -3.082031 1.300781 -3.347656 1.4375 -3.578125 C 1.570312 -3.804688 1.753906 -3.984375 1.984375 -4.109375 C 2.210938 -4.242188 2.46875 -4.3125 2.75 -4.3125 C 3.019531 -4.3125 3.234375 -4.25 3.390625 -4.125 C 3.554688 -4 3.640625 -3.820312 3.640625 -3.59375 C 3.640625 -3.382812 3.578125 -3.1875 3.453125 -3 C 3.335938 -2.8125 3.160156 -2.640625 2.921875 -2.484375 C 2.679688 -2.328125 2.375 -2.179688 2 -2.046875 C 1.675781 -1.898438 1.429688 -1.742188 1.265625 -1.578125 C 1.097656 -1.421875 1.015625 -1.238281 1.015625 -1.03125 C 1.015625 -0.851562 1.078125 -0.710938 1.203125 -0.609375 C 1.335938 -0.515625 1.523438 -0.46875 1.765625 -0.46875 C 2.160156 -0.46875 2.519531 -0.570312 2.84375 -0.78125 C 3.164062 -1 3.453125 -1.34375 3.703125 -1.8125 L 3.265625 -1.890625 L 3.34375 -2.203125 L 4.84375 -2.203125 L 4.796875 -1.890625 L 4.328125 -1.8125 C 3.890625 -1.1875 3.429688 -0.71875 2.953125 -0.40625 C 2.472656 -0.09375 1.972656 0.0625 1.453125 0.0625 Z M 1.453125 0.0625 "/></g></g></g><g fill="#3d3b3a" fill-opacity="1"><g transform="translate(187.546938, 45.834568)"><g/></g></g><g fill="#3d3b3a" fill-opacity="1"><g transform="translate(190.138218, 45.834568)"><g><path d="M -0.5 1.421875 L -0.453125 1.125 L -0.03125 1.015625 C -0.0195312 0.960938 0 0.882812 0.03125 0.78125 C 0.0625 0.675781 0.0976562 0.539062 0.140625 0.375 L 0.53125 -1.078125 C 0.613281 -1.390625 0.675781 -1.648438 0.71875 -1.859375 C 0.757812 -2.066406 0.78125 -2.21875 0.78125 -2.3125 C 0.6875 -2.257812 0.597656 -2.191406 0.515625 -2.109375 C 0.429688 -2.023438 0.347656 -1.921875 0.265625 -1.796875 L 0.0625 -2.0625 C 0.164062 -2.207031 0.285156 -2.34375 0.421875 -2.46875 C 0.566406 -2.59375 0.710938 -2.691406 0.859375 -2.765625 C 1.003906 -2.847656 1.140625 -2.890625 1.265625 -2.890625 C 1.367188 -2.890625 1.445312 -2.859375 1.5 -2.796875 C 1.5625 -2.734375 1.59375 -2.644531 1.59375 -2.53125 C 1.59375 -2.4375 1.5625 -2.253906 1.5 -1.984375 C 1.4375 -1.722656 1.335938 -1.378906 1.203125 -0.953125 L 1.15625 -0.953125 C 1.289062 -1.347656 1.441406 -1.6875 1.609375 -1.96875 C 1.785156 -2.257812 1.96875 -2.484375 2.15625 -2.640625 C 2.34375 -2.804688 2.53125 -2.890625 2.71875 -2.890625 C 2.90625 -2.890625 3.054688 -2.820312 3.171875 -2.6875 C 3.285156 -2.550781 3.34375 -2.375 3.34375 -2.15625 C 3.34375 -1.851562 3.285156 -1.566406 3.171875 -1.296875 C 3.054688 -1.035156 2.90625 -0.800781 2.71875 -0.59375 C 2.53125 -0.394531 2.328125 -0.238281 2.109375 -0.125 C 1.890625 -0.0078125 1.675781 0.046875 1.46875 0.046875 C 1.34375 0.046875 1.234375 0.015625 1.140625 -0.046875 C 1.046875 -0.117188 0.953125 -0.222656 0.859375 -0.359375 L 1.046875 -0.5625 C 1.117188 -0.488281 1.195312 -0.4375 1.28125 -0.40625 C 1.363281 -0.382812 1.445312 -0.375 1.53125 -0.375 C 1.664062 -0.375 1.785156 -0.414062 1.890625 -0.5 C 2.003906 -0.582031 2.101562 -0.695312 2.1875 -0.84375 C 2.269531 -0.988281 2.332031 -1.15625 2.375 -1.34375 C 2.425781 -1.539062 2.453125 -1.742188 2.453125 -1.953125 C 2.453125 -2.046875 2.441406 -2.117188 2.421875 -2.171875 C 2.398438 -2.234375 2.367188 -2.265625 2.328125 -2.265625 C 2.273438 -2.265625 2.207031 -2.222656 2.125 -2.140625 C 2.039062 -2.054688 1.953125 -1.945312 1.859375 -1.8125 C 1.765625 -1.6875 1.664062 -1.535156 1.5625 -1.359375 C 1.46875 -1.191406 1.378906 -1.015625 1.296875 -0.828125 C 1.210938 -0.648438 1.144531 -0.472656 1.09375 -0.296875 L 1.078125 -0.21875 L 1 0.125 C 0.945312 0.375 0.90625 0.578125 0.875 0.734375 C 0.84375 0.890625 0.820312 0.984375 0.8125 1.015625 L 1.3125 1.125 L 1.234375 1.421875 Z M -0.5 1.421875 "/></g></g></g><g fill="#3d3b3a" fill-opacity="1"><g transform="translate(194.928396, 45.834568)"><g><path d="M 2.234375 -2.171875 C 2.148438 -2.171875 2.066406 -2.132812 1.984375 -2.0625 C 1.910156 -2 1.835938 -1.898438 1.765625 -1.765625 C 1.691406 -1.640625 1.613281 -1.492188 1.53125 -1.328125 C 1.425781 -1.097656 1.332031 -0.863281 1.25 -0.625 C 1.175781 -0.382812 1.117188 -0.175781 1.078125 0 L 0.21875 0 C 0.269531 -0.175781 0.328125 -0.378906 0.390625 -0.609375 C 0.460938 -0.835938 0.523438 -1.0625 0.578125 -1.28125 C 0.640625 -1.507812 0.6875 -1.710938 0.71875 -1.890625 C 0.757812 -2.078125 0.78125 -2.21875 0.78125 -2.3125 C 0.695312 -2.257812 0.613281 -2.191406 0.53125 -2.109375 C 0.445312 -2.023438 0.359375 -1.921875 0.265625 -1.796875 L 0.078125 -2.0625 C 0.179688 -2.207031 0.300781 -2.34375 0.4375 -2.46875 C 0.570312 -2.59375 0.710938 -2.691406 0.859375 -2.765625 C 1.003906 -2.847656 1.140625 -2.890625 1.265625 -2.890625 C 1.359375 -2.890625 1.425781 -2.863281 1.46875 -2.8125 C 1.519531 -2.757812 1.546875 -2.671875 1.546875 -2.546875 C 1.546875 -2.484375 1.53125 -2.367188 1.5 -2.203125 C 1.46875 -2.046875 1.414062 -1.835938 1.34375 -1.578125 C 1.28125 -1.328125 1.1875 -1.03125 1.0625 -0.6875 L 1.03125 -0.6875 C 1.132812 -0.976562 1.238281 -1.253906 1.34375 -1.515625 C 1.457031 -1.785156 1.566406 -2.019531 1.671875 -2.21875 C 1.785156 -2.425781 1.90625 -2.585938 2.03125 -2.703125 C 2.164062 -2.828125 2.304688 -2.890625 2.453125 -2.890625 C 2.578125 -2.890625 2.664062 -2.859375 2.71875 -2.796875 C 2.78125 -2.734375 2.8125 -2.644531 2.8125 -2.53125 C 2.8125 -2.445312 2.789062 -2.351562 2.75 -2.25 C 2.71875 -2.15625 2.664062 -2.070312 2.59375 -2 C 2.539062 -2.050781 2.476562 -2.09375 2.40625 -2.125 C 2.34375 -2.15625 2.285156 -2.171875 2.234375 -2.171875 Z M 2.234375 -2.171875 "/></g></g></g><g fill="#3d3b3a" fill-opacity="1"><g transform="translate(198.93832, 45.834568)"><g><path d="M 1.203125 0.046875 C 0.984375 0.046875 0.796875 0.00390625 0.640625 -0.078125 C 0.484375 -0.160156 0.363281 -0.273438 0.28125 -0.421875 C 0.195312 -0.578125 0.15625 -0.757812 0.15625 -0.96875 C 0.15625 -1.21875 0.195312 -1.457031 0.28125 -1.6875 C 0.375 -1.914062 0.5 -2.117188 0.65625 -2.296875 C 0.8125 -2.472656 0.988281 -2.613281 1.1875 -2.71875 C 1.394531 -2.832031 1.613281 -2.890625 1.84375 -2.890625 C 2.050781 -2.890625 2.234375 -2.847656 2.390625 -2.765625 C 2.546875 -2.679688 2.664062 -2.5625 2.75 -2.40625 C 2.832031 -2.257812 2.875 -2.078125 2.875 -1.859375 C 2.875 -1.617188 2.832031 -1.382812 2.75 -1.15625 C 2.664062 -0.925781 2.546875 -0.71875 2.390625 -0.53125 C 2.234375 -0.351562 2.050781 -0.210938 1.84375 -0.109375 C 1.644531 -0.00390625 1.429688 0.046875 1.203125 0.046875 Z M 1.375 -0.359375 C 1.46875 -0.359375 1.550781 -0.394531 1.625 -0.46875 C 1.707031 -0.550781 1.773438 -0.660156 1.828125 -0.796875 C 1.890625 -0.941406 1.9375 -1.101562 1.96875 -1.28125 C 2 -1.457031 2.015625 -1.640625 2.015625 -1.828125 C 2.015625 -2.035156 1.984375 -2.195312 1.921875 -2.3125 C 1.867188 -2.4375 1.789062 -2.5 1.6875 -2.5 C 1.59375 -2.5 1.503906 -2.457031 1.421875 -2.375 C 1.347656 -2.300781 1.28125 -2.191406 1.21875 -2.046875 C 1.164062 -1.910156 1.125 -1.753906 1.09375 -1.578125 C 1.0625 -1.398438 1.046875 -1.21875 1.046875 -1.03125 C 1.046875 -0.8125 1.070312 -0.644531 1.125 -0.53125 C 1.1875 -0.414062 1.269531 -0.359375 1.375 -0.359375 Z M 1.375 -0.359375 "/></g></g></g><g fill="#3d3b3a" fill-opacity="1"><g transform="translate(203.302906, 45.834568)"><g><path d="M -0.5 1.421875 L -0.453125 1.125 L -0.03125 1.015625 C -0.0195312 0.960938 0 0.882812 0.03125 0.78125 C 0.0625 0.675781 0.0976562 0.539062 0.140625 0.375 L 0.53125 -1.078125 C 0.613281 -1.390625 0.675781 -1.648438 0.71875 -1.859375 C 0.757812 -2.066406 0.78125 -2.21875 0.78125 -2.3125 C 0.6875 -2.257812 0.597656 -2.191406 0.515625 -2.109375 C 0.429688 -2.023438 0.347656 -1.921875 0.265625 -1.796875 L 0.0625 -2.0625 C 0.164062 -2.207031 0.285156 -2.34375 0.421875 -2.46875 C 0.566406 -2.59375 0.710938 -2.691406 0.859375 -2.765625 C 1.003906 -2.847656 1.140625 -2.890625 1.265625 -2.890625 C 1.367188 -2.890625 1.445312 -2.859375 1.5 -2.796875 C 1.5625 -2.734375 1.59375 -2.644531 1.59375 -2.53125 C 1.59375 -2.4375 1.5625 -2.253906 1.5 -1.984375 C 1.4375 -1.722656 1.335938 -1.378906 1.203125 -0.953125 L 1.15625 -0.953125 C 1.289062 -1.347656 1.441406 -1.6875 1.609375 -1.96875 C 1.785156 -2.257812 1.96875 -2.484375 2.15625 -2.640625 C 2.34375 -2.804688 2.53125 -2.890625 2.71875 -2.890625 C 2.90625 -2.890625 3.054688 -2.820312 3.171875 -2.6875 C 3.285156 -2.550781 3.34375 -2.375 3.34375 -2.15625 C 3.34375 -1.851562 3.285156 -1.566406 3.171875 -1.296875 C 3.054688 -1.035156 2.90625 -0.800781 2.71875 -0.59375 C 2.53125 -0.394531 2.328125 -0.238281 2.109375 -0.125 C 1.890625 -0.0078125 1.675781 0.046875 1.46875 0.046875 C 1.34375 0.046875 1.234375 0.015625 1.140625 -0.046875 C 1.046875 -0.117188 0.953125 -0.222656 0.859375 -0.359375 L 1.046875 -0.5625 C 1.117188 -0.488281 1.195312 -0.4375 1.28125 -0.40625 C 1.363281 -0.382812 1.445312 -0.375 1.53125 -0.375 C 1.664062 -0.375 1.785156 -0.414062 1.890625 -0.5 C 2.003906 -0.582031 2.101562 -0.695312 2.1875 -0.84375 C 2.269531 -0.988281 2.332031 -1.15625 2.375 -1.34375 C 2.425781 -1.539062 2.453125 -1.742188 2.453125 -1.953125 C 2.453125 -2.046875 2.441406 -2.117188 2.421875 -2.171875 C 2.398438 -2.234375 2.367188 -2.265625 2.328125 -2.265625 C 2.273438 -2.265625 2.207031 -2.222656 2.125 -2.140625 C 2.039062 -2.054688 1.953125 -1.945312 1.859375 -1.8125 C 1.765625 -1.6875 1.664062 -1.535156 1.5625 -1.359375 C 1.46875 -1.191406 1.378906 -1.015625 1.296875 -0.828125 C 1.210938 -0.648438 1.144531 -0.472656 1.09375 -0.296875 L 1.078125 -0.21875 L 1 0.125 C 0.945312 0.375 0.90625 0.578125 0.875 0.734375 C 0.84375 0.890625 0.820312 0.984375 0.8125 1.015625 L 1.3125 1.125 L 1.234375 1.421875 Z M -0.5 1.421875 "/></g></g></g><g fill="#3d3b3a" fill-opacity="1"><g transform="translate(208.093085, 45.834568)"><g><path d="M 1.234375 0.046875 C 0.910156 0.046875 0.648438 -0.0390625 0.453125 -0.21875 C 0.265625 -0.40625 0.171875 -0.65625 0.171875 -0.96875 C 0.171875 -1.226562 0.21875 -1.472656 0.3125 -1.703125 C 0.40625 -1.929688 0.53125 -2.132812 0.6875 -2.3125 C 0.84375 -2.488281 1.023438 -2.628906 1.234375 -2.734375 C 1.453125 -2.835938 1.675781 -2.890625 1.90625 -2.890625 C 2.15625 -2.890625 2.34375 -2.835938 2.46875 -2.734375 C 2.601562 -2.628906 2.671875 -2.5 2.671875 -2.34375 C 2.671875 -2.25 2.644531 -2.148438 2.59375 -2.046875 C 2.539062 -1.953125 2.453125 -1.851562 2.328125 -1.75 C 2.203125 -1.644531 2.023438 -1.53125 1.796875 -1.40625 C 1.578125 -1.289062 1.289062 -1.171875 0.9375 -1.046875 L 0.9375 -1.390625 C 1.175781 -1.484375 1.363281 -1.578125 1.5 -1.671875 C 1.632812 -1.773438 1.726562 -1.878906 1.78125 -1.984375 C 1.84375 -2.085938 1.875 -2.191406 1.875 -2.296875 C 1.875 -2.367188 1.851562 -2.425781 1.8125 -2.46875 C 1.78125 -2.507812 1.734375 -2.53125 1.671875 -2.53125 C 1.566406 -2.53125 1.460938 -2.472656 1.359375 -2.359375 C 1.265625 -2.242188 1.1875 -2.082031 1.125 -1.875 C 1.0625 -1.664062 1.03125 -1.425781 1.03125 -1.15625 C 1.03125 -0.945312 1.070312 -0.789062 1.15625 -0.6875 C 1.25 -0.59375 1.363281 -0.546875 1.5 -0.546875 C 1.613281 -0.546875 1.742188 -0.578125 1.890625 -0.640625 C 2.046875 -0.710938 2.195312 -0.832031 2.34375 -1 L 2.53125 -0.703125 C 2.34375 -0.441406 2.128906 -0.25 1.890625 -0.125 C 1.648438 -0.0078125 1.429688 0.046875 1.234375 0.046875 Z M 1.234375 0.046875 "/></g></g></g><g fill="#3d3b3a" fill-opacity="1"><g transform="translate(212.135252, 45.834568)"><g><path d="M 2.234375 -2.171875 C 2.148438 -2.171875 2.066406 -2.132812 1.984375 -2.0625 C 1.910156 -2 1.835938 -1.898438 1.765625 -1.765625 C 1.691406 -1.640625 1.613281 -1.492188 1.53125 -1.328125 C 1.425781 -1.097656 1.332031 -0.863281 1.25 -0.625 C 1.175781 -0.382812 1.117188 -0.175781 1.078125 0 L 0.21875 0 C 0.269531 -0.175781 0.328125 -0.378906 0.390625 -0.609375 C 0.460938 -0.835938 0.523438 -1.0625 0.578125 -1.28125 C 0.640625 -1.507812 0.6875 -1.710938 0.71875 -1.890625 C 0.757812 -2.078125 0.78125 -2.21875 0.78125 -2.3125 C 0.695312 -2.257812 0.613281 -2.191406 0.53125 -2.109375 C 0.445312 -2.023438 0.359375 -1.921875 0.265625 -1.796875 L 0.078125 -2.0625 C 0.179688 -2.207031 0.300781 -2.34375 0.4375 -2.46875 C 0.570312 -2.59375 0.710938 -2.691406 0.859375 -2.765625 C 1.003906 -2.847656 1.140625 -2.890625 1.265625 -2.890625 C 1.359375 -2.890625 1.425781 -2.863281 1.46875 -2.8125 C 1.519531 -2.757812 1.546875 -2.671875 1.546875 -2.546875 C 1.546875 -2.484375 1.53125 -2.367188 1.5 -2.203125 C 1.46875 -2.046875 1.414062 -1.835938 1.34375 -1.578125 C 1.28125 -1.328125 1.1875 -1.03125 1.0625 -0.6875 L 1.03125 -0.6875 C 1.132812 -0.976562 1.238281 -1.253906 1.34375 -1.515625 C 1.457031 -1.785156 1.566406 -2.019531 1.671875 -2.21875 C 1.785156 -2.425781 1.90625 -2.585938 2.03125 -2.703125 C 2.164062 -2.828125 2.304688 -2.890625 2.453125 -2.890625 C 2.578125 -2.890625 2.664062 -2.859375 2.71875 -2.796875 C 2.78125 -2.734375 2.8125 -2.644531 2.8125 -2.53125 C 2.8125 -2.445312 2.789062 -2.351562 2.75 -2.25 C 2.71875 -2.15625 2.664062 -2.070312 2.59375 -2 C 2.539062 -2.050781 2.476562 -2.09375 2.40625 -2.125 C 2.34375 -2.15625 2.285156 -2.171875 2.234375 -2.171875 Z M 2.234375 -2.171875 "/></g></g></g><g fill="#3d3b3a" fill-opacity="1"><g transform="translate(216.145177, 45.834568)"><g><path d="M 2.140625 -0.8125 C 1.929688 -0.519531 1.710938 -0.300781 1.484375 -0.15625 C 1.253906 -0.0195312 1.023438 0.046875 0.796875 0.046875 C 0.628906 0.046875 0.5 0.00390625 0.40625 -0.078125 C 0.3125 -0.160156 0.265625 -0.28125 0.265625 -0.4375 C 0.265625 -0.476562 0.269531 -0.53125 0.28125 -0.59375 C 0.289062 -0.664062 0.304688 -0.738281 0.328125 -0.8125 L 0.71875 -2.421875 L 0.265625 -2.421875 L 0.3125 -2.625 L 1.59375 -3.484375 L 1.796875 -3.484375 L 1.5625 -2.59375 L 1.1875 -0.984375 C 1.164062 -0.898438 1.148438 -0.835938 1.140625 -0.796875 C 1.128906 -0.765625 1.125 -0.734375 1.125 -0.703125 C 1.125 -0.609375 1.171875 -0.5625 1.265625 -0.5625 C 1.347656 -0.5625 1.441406 -0.597656 1.546875 -0.671875 C 1.648438 -0.753906 1.78125 -0.898438 1.9375 -1.109375 Z M 1.21875 -2.421875 L 1.296875 -2.828125 L 2.34375 -2.828125 L 2.265625 -2.421875 Z M 1.21875 -2.421875 "/></g></g></g><g fill="#3d3b3a" fill-opacity="1"><g transform="translate(219.697266, 45.834568)"><g><path d="M 0.6875 0.046875 C 0.570312 0.046875 0.476562 0.0195312 0.40625 -0.03125 C 0.34375 -0.09375 0.3125 -0.191406 0.3125 -0.328125 C 0.3125 -0.390625 0.328125 -0.484375 0.359375 -0.609375 C 0.398438 -0.742188 0.445312 -0.890625 0.5 -1.046875 C 0.550781 -1.210938 0.601562 -1.375 0.65625 -1.53125 C 0.707031 -1.695312 0.75 -1.847656 0.78125 -1.984375 C 0.8125 -2.128906 0.828125 -2.238281 0.828125 -2.3125 C 0.742188 -2.257812 0.660156 -2.191406 0.578125 -2.109375 C 0.492188 -2.023438 0.410156 -1.921875 0.328125 -1.796875 L 0.125 -2.0625 C 0.226562 -2.207031 0.347656 -2.34375 0.484375 -2.46875 C 0.628906 -2.59375 0.773438 -2.691406 0.921875 -2.765625 C 1.066406 -2.847656 1.207031 -2.890625 1.34375 -2.890625 C 1.457031 -2.890625 1.546875 -2.851562 1.609375 -2.78125 C 1.671875 -2.71875 1.703125 -2.628906 1.703125 -2.515625 C 1.703125 -2.441406 1.679688 -2.335938 1.640625 -2.203125 C 1.609375 -2.078125 1.566406 -1.929688 1.515625 -1.765625 C 1.472656 -1.597656 1.425781 -1.429688 1.375 -1.265625 C 1.320312 -1.097656 1.273438 -0.945312 1.234375 -0.8125 C 1.203125 -0.675781 1.1875 -0.578125 1.1875 -0.515625 C 1.269531 -0.566406 1.351562 -0.632812 1.4375 -0.71875 C 1.519531 -0.800781 1.609375 -0.894531 1.703125 -1 L 1.890625 -0.78125 C 1.785156 -0.632812 1.664062 -0.492188 1.53125 -0.359375 C 1.394531 -0.234375 1.253906 -0.132812 1.109375 -0.0625 C 0.960938 0.0078125 0.820312 0.046875 0.6875 0.046875 Z M 1.5 -3.40625 C 1.34375 -3.40625 1.222656 -3.445312 1.140625 -3.53125 C 1.054688 -3.625 1.015625 -3.738281 1.015625 -3.875 C 1.015625 -3.96875 1.035156 -4.054688 1.078125 -4.140625 C 1.128906 -4.234375 1.195312 -4.304688 1.28125 -4.359375 C 1.375 -4.410156 1.476562 -4.4375 1.59375 -4.4375 C 1.75 -4.4375 1.863281 -4.390625 1.9375 -4.296875 C 2.019531 -4.210938 2.0625 -4.109375 2.0625 -3.984375 C 2.0625 -3.890625 2.035156 -3.796875 1.984375 -3.703125 C 1.941406 -3.609375 1.878906 -3.535156 1.796875 -3.484375 C 1.710938 -3.429688 1.613281 -3.40625 1.5 -3.40625 Z M 1.5 -3.40625 "/></g></g></g><g fill="#3d3b3a" fill-opacity="1"><g transform="translate(223.03656, 45.834568)"><g><path d="M 1.234375 0.046875 C 0.910156 0.046875 0.648438 -0.0390625 0.453125 -0.21875 C 0.265625 -0.40625 0.171875 -0.65625 0.171875 -0.96875 C 0.171875 -1.226562 0.21875 -1.472656 0.3125 -1.703125 C 0.40625 -1.929688 0.53125 -2.132812 0.6875 -2.3125 C 0.84375 -2.488281 1.023438 -2.628906 1.234375 -2.734375 C 1.453125 -2.835938 1.675781 -2.890625 1.90625 -2.890625 C 2.15625 -2.890625 2.34375 -2.835938 2.46875 -2.734375 C 2.601562 -2.628906 2.671875 -2.5 2.671875 -2.34375 C 2.671875 -2.25 2.644531 -2.148438 2.59375 -2.046875 C 2.539062 -1.953125 2.453125 -1.851562 2.328125 -1.75 C 2.203125 -1.644531 2.023438 -1.53125 1.796875 -1.40625 C 1.578125 -1.289062 1.289062 -1.171875 0.9375 -1.046875 L 0.9375 -1.390625 C 1.175781 -1.484375 1.363281 -1.578125 1.5 -1.671875 C 1.632812 -1.773438 1.726562 -1.878906 1.78125 -1.984375 C 1.84375 -2.085938 1.875 -2.191406 1.875 -2.296875 C 1.875 -2.367188 1.851562 -2.425781 1.8125 -2.46875 C 1.78125 -2.507812 1.734375 -2.53125 1.671875 -2.53125 C 1.566406 -2.53125 1.460938 -2.472656 1.359375 -2.359375 C 1.265625 -2.242188 1.1875 -2.082031 1.125 -1.875 C 1.0625 -1.664062 1.03125 -1.425781 1.03125 -1.15625 C 1.03125 -0.945312 1.070312 -0.789062 1.15625 -0.6875 C 1.25 -0.59375 1.363281 -0.546875 1.5 -0.546875 C 1.613281 -0.546875 1.742188 -0.578125 1.890625 -0.640625 C 2.046875 -0.710938 2.195312 -0.832031 2.34375 -1 L 2.53125 -0.703125 C 2.34375 -0.441406 2.128906 -0.25 1.890625 -0.125 C 1.648438 -0.0078125 1.429688 0.046875 1.234375 0.046875 Z M 1.234375 0.046875 "/></g></g></g><g fill="#3d3b3a" fill-opacity="1"><g transform="translate(227.078727, 45.834568)"><g><path d="M 0.875 0.046875 C 0.695312 0.046875 0.539062 0.0195312 0.40625 -0.03125 C 0.269531 -0.0820312 0.164062 -0.148438 0.09375 -0.234375 C 0.0195312 -0.316406 -0.015625 -0.40625 -0.015625 -0.5 C -0.015625 -0.582031 0 -0.660156 0.03125 -0.734375 C 0.0703125 -0.804688 0.117188 -0.867188 0.171875 -0.921875 C 0.304688 -0.753906 0.453125 -0.617188 0.609375 -0.515625 C 0.773438 -0.410156 0.921875 -0.359375 1.046875 -0.359375 C 1.128906 -0.359375 1.195312 -0.378906 1.25 -0.421875 C 1.3125 -0.460938 1.34375 -0.53125 1.34375 -0.625 C 1.34375 -0.707031 1.3125 -0.78125 1.25 -0.84375 C 1.1875 -0.914062 1.0625 -1.007812 0.875 -1.125 C 0.738281 -1.21875 0.628906 -1.300781 0.546875 -1.375 C 0.460938 -1.457031 0.398438 -1.535156 0.359375 -1.609375 C 0.328125 -1.691406 0.3125 -1.78125 0.3125 -1.875 C 0.3125 -2.070312 0.363281 -2.242188 0.46875 -2.390625 C 0.582031 -2.546875 0.734375 -2.664062 0.921875 -2.75 C 1.109375 -2.84375 1.3125 -2.890625 1.53125 -2.890625 C 1.675781 -2.890625 1.804688 -2.867188 1.921875 -2.828125 C 2.046875 -2.796875 2.144531 -2.742188 2.21875 -2.671875 C 2.300781 -2.597656 2.34375 -2.503906 2.34375 -2.390625 C 2.34375 -2.304688 2.328125 -2.234375 2.296875 -2.171875 C 2.265625 -2.109375 2.222656 -2.050781 2.171875 -2 C 2.023438 -2.175781 1.890625 -2.300781 1.765625 -2.375 C 1.640625 -2.457031 1.519531 -2.5 1.40625 -2.5 C 1.3125 -2.5 1.234375 -2.46875 1.171875 -2.40625 C 1.109375 -2.351562 1.078125 -2.285156 1.078125 -2.203125 C 1.078125 -2.148438 1.085938 -2.101562 1.109375 -2.0625 C 1.140625 -2.019531 1.191406 -1.96875 1.265625 -1.90625 C 1.335938 -1.851562 1.441406 -1.78125 1.578125 -1.6875 C 1.710938 -1.59375 1.816406 -1.507812 1.890625 -1.4375 C 1.960938 -1.363281 2.015625 -1.289062 2.046875 -1.21875 C 2.085938 -1.144531 2.109375 -1.0625 2.109375 -0.96875 C 2.109375 -0.78125 2.050781 -0.609375 1.9375 -0.453125 C 1.832031 -0.296875 1.6875 -0.171875 1.5 -0.078125 C 1.3125 0.00390625 1.101562 0.046875 0.875 0.046875 Z M 0.875 0.046875 "/></g></g></g></svg>