<svg xmlns="http://www.w3.org/2000/svg" xmlns:xlink="http://www.w3.org/1999/xlink" width="92" zoomAndPan="magnify" viewBox="0 0 69 91.5" height="122" preserveAspectRatio="xMidYMid meet" version="1.0"><defs><clipPath id="b7697c4e2d"><path d="M 0.1875 13 L 25 13 L 25 91.003906 L 0.1875 91.003906 Z M 0.1875 13 " clip-rule="nonzero"/></clipPath><clipPath id="02bef02f12"><path d="M 0.1875 67 L 68.8125 67 L 68.8125 91.003906 L 0.1875 91.003906 Z M 0.1875 67 " clip-rule="nonzero"/></clipPath><clipPath id="f6131296e7"><path d="M 0.1875 0 L 55 0 L 55 56 L 0.1875 56 Z M 0.1875 0 " clip-rule="nonzero"/></clipPath><clipPath id="b3ca7f47ca"><path d="M 0.1875 0 L 68.8125 0 L 68.8125 79 L 0.1875 79 Z M 0.1875 0 " clip-rule="nonzero"/></clipPath></defs><g clip-path="url(#b7697c4e2d)"><path stroke-linecap="butt" transform="matrix(-0.00738778, -0.745887, 0.745887, -0.00738778, 1.293708, 89.717345)" fill="none" stroke-linejoin="miter" d="M -0.00048263 2.502315 L 73.585368 2.497973 " stroke="#004aad" stroke-width="5" stroke-opacity="1" stroke-miterlimit="4"/></g><g clip-path="url(#02bef02f12)"><path stroke-linecap="butt" transform="matrix(-0.745917, -0.00327826, 0.00327826, -0.745917, 67.505323, 90.702767)" fill="none" stroke-linejoin="miter" d="M 0.0024025 2.497484 L 88.625548 2.500755 " stroke="#004aad" stroke-width="5" stroke-opacity="1" stroke-miterlimit="4"/></g><g clip-path="url(#f6131296e7)"><path stroke-linecap="round" transform="matrix(0.527448, -0.527448, 0.527448, 0.527448, 0.764027, 34.621106)" fill="none" stroke-linejoin="miter" d="M 2.501033 2.50101 L 59.748992 2.50101 " stroke="#004aad" stroke-width="5" stroke-opacity="1" stroke-miterlimit="4"/></g><g clip-path="url(#b3ca7f47ca)"><path stroke-linecap="butt" transform="matrix(0.527448, 0.527448, -0.527448, 0.527448, 35.346222, 0.480932)" fill="none" stroke-linejoin="miter" d="M -0.00278183 5.000918 L 62.236785 5.000918 " stroke="#004aad" stroke-width="10" stroke-opacity="1" stroke-miterlimit="4"/></g></svg>